<svg xmlns="http://www.w3.org/2000/svg" width="128" height="128" viewBox="0 0 128 128">
  <rect x="15" y="29" width="98" height="70" rx="12" fill="#ECFDF5" stroke="#059669" stroke-width="7"/>
  <path d="M28 45c8 0 12-4 12-10h48c0 6 4 10 12 10v38c-8 0-12 4-12 10H40c0-6-4-10-12-10Z" fill="none" stroke="#059669" stroke-width="5"/>
  <circle cx="64" cy="64" r="15" fill="#059669"/>
  <path d="M69 56c-8-4-14 0-11 5 2 3 12 1 12 8 0 6-9 8-16 3M64 51v26" fill="none" stroke="#FFFFFF" stroke-width="4" stroke-linecap="round"/>
</svg>
